<mxfile host="Electron" agent="Mozilla/5.0 (Windows NT 10.0; Win64; x64) AppleWebKit/537.36 (KHTML, like Gecko) draw.io/27.0.9 Chrome/134.0.6998.205 Electron/35.4.0 Safari/537.36" version="27.0.9">
  <diagram name="Pagina-1" id="SSzQFC3UWuY03TfO-J7L">
    <mxGraphModel dx="1554" dy="914" grid="1" gridSize="10" guides="1" tooltips="1" connect="1" arrows="1" fold="1" page="1" pageScale="1" pageWidth="1169" pageHeight="827" math="0" shadow="0">
      <root>
        <mxCell id="0" />
        <mxCell id="1" parent="0" />
        <mxCell id="AjYrmz2Z_Og6rxgmp1J4-1" value="&lt;b&gt;&lt;font&gt;Data Flow Diagram&lt;/font&gt;&lt;/b&gt;" style="text;html=1;align=center;verticalAlign=middle;resizable=0;points=[];autosize=1;strokeColor=none;fillColor=none;fontSize=23;" parent="1" vertex="1">
          <mxGeometry x="5" y="25" width="230" height="40" as="geometry" />
        </mxCell>
        <mxCell id="L7s4A5tMN4BJx0zEjRQ6-8" value="&lt;b&gt;&lt;font style=&quot;font-size: 16px;&quot;&gt;Bronze Layer&lt;/font&gt;&lt;/b&gt;" style="rounded=1;whiteSpace=wrap;html=1;fillColor=#ffe6cc;strokeColor=#d79b00;" parent="1" vertex="1">
          <mxGeometry x="300" y="210" width="157.5" height="30" as="geometry" />
        </mxCell>
        <mxCell id="L7s4A5tMN4BJx0zEjRQ6-10" value="" style="rounded=1;whiteSpace=wrap;html=1;fillColor=none;strokeColor=#d79b00;" parent="1" vertex="1">
          <mxGeometry x="300" y="260" width="170" height="360" as="geometry" />
        </mxCell>
        <mxCell id="L7s4A5tMN4BJx0zEjRQ6-11" value="&lt;font style=&quot;font-size: 13px;&quot;&gt;crm_sales_details&lt;/font&gt;" style="rounded=1;whiteSpace=wrap;html=1;fillColor=#ffe6cc;strokeColor=#d79b00;" parent="1" vertex="1">
          <mxGeometry x="315.5" y="280" width="142" height="30" as="geometry" />
        </mxCell>
        <mxCell id="L7s4A5tMN4BJx0zEjRQ6-12" value="&lt;font style=&quot;font-size: 13px;&quot;&gt;crm_cust_info&lt;/font&gt;" style="rounded=1;whiteSpace=wrap;html=1;fillColor=#ffe6cc;strokeColor=#d79b00;" parent="1" vertex="1">
          <mxGeometry x="315.5" y="325" width="142" height="30" as="geometry" />
        </mxCell>
        <mxCell id="L7s4A5tMN4BJx0zEjRQ6-13" value="&lt;font style=&quot;font-size: 13px;&quot;&gt;crm_prd_info&lt;/font&gt;" style="rounded=1;whiteSpace=wrap;html=1;fillColor=#ffe6cc;strokeColor=#d79b00;" parent="1" vertex="1">
          <mxGeometry x="315.5" y="370" width="142" height="30" as="geometry" />
        </mxCell>
        <mxCell id="L7s4A5tMN4BJx0zEjRQ6-14" value="&lt;font style=&quot;font-size: 13px;&quot;&gt;erp_cust_as12&lt;/font&gt;" style="rounded=1;whiteSpace=wrap;html=1;fillColor=#ffe6cc;strokeColor=#d79b00;" parent="1" vertex="1">
          <mxGeometry x="315.5" y="470" width="142" height="30" as="geometry" />
        </mxCell>
        <mxCell id="L7s4A5tMN4BJx0zEjRQ6-15" value="&lt;font style=&quot;font-size: 13px;&quot;&gt;erp_loc_a101&lt;/font&gt;" style="rounded=1;whiteSpace=wrap;html=1;fillColor=#ffe6cc;strokeColor=#d79b00;" parent="1" vertex="1">
          <mxGeometry x="314" y="510" width="142" height="30" as="geometry" />
        </mxCell>
        <mxCell id="L7s4A5tMN4BJx0zEjRQ6-16" value="&lt;font style=&quot;font-size: 13px;&quot;&gt;erp_px_cat_g1v2&lt;/font&gt;" style="rounded=1;whiteSpace=wrap;html=1;fillColor=#ffe6cc;strokeColor=#d79b00;" parent="1" vertex="1">
          <mxGeometry x="314" y="550" width="142" height="30" as="geometry" />
        </mxCell>
        <mxCell id="L7s4A5tMN4BJx0zEjRQ6-17" value="" style="rounded=0;whiteSpace=wrap;html=1;dashed=1;dashPattern=8 8;fillColor=none;" parent="1" vertex="1">
          <mxGeometry x="90" y="210" width="150" height="410" as="geometry" />
        </mxCell>
        <mxCell id="L7s4A5tMN4BJx0zEjRQ6-18" value="Sources" style="rounded=0;whiteSpace=wrap;html=1;fillColor=default;strokeColor=none;fontStyle=1;fontSize=16;" parent="1" vertex="1">
          <mxGeometry x="110" y="190" width="120" height="40" as="geometry" />
        </mxCell>
        <mxCell id="L7s4A5tMN4BJx0zEjRQ6-21" style="edgeStyle=orthogonalEdgeStyle;rounded=0;orthogonalLoop=1;jettySize=auto;html=1;entryX=0;entryY=0.5;entryDx=0;entryDy=0;" parent="1" source="L7s4A5tMN4BJx0zEjRQ6-19" target="L7s4A5tMN4BJx0zEjRQ6-11" edge="1">
          <mxGeometry relative="1" as="geometry" />
        </mxCell>
        <mxCell id="L7s4A5tMN4BJx0zEjRQ6-22" style="edgeStyle=orthogonalEdgeStyle;rounded=0;orthogonalLoop=1;jettySize=auto;html=1;" parent="1" source="L7s4A5tMN4BJx0zEjRQ6-19" target="L7s4A5tMN4BJx0zEjRQ6-12" edge="1">
          <mxGeometry relative="1" as="geometry" />
        </mxCell>
        <mxCell id="L7s4A5tMN4BJx0zEjRQ6-23" style="edgeStyle=orthogonalEdgeStyle;rounded=0;orthogonalLoop=1;jettySize=auto;html=1;entryX=0;entryY=0.5;entryDx=0;entryDy=0;" parent="1" source="L7s4A5tMN4BJx0zEjRQ6-19" target="L7s4A5tMN4BJx0zEjRQ6-13" edge="1">
          <mxGeometry relative="1" as="geometry" />
        </mxCell>
        <mxCell id="L7s4A5tMN4BJx0zEjRQ6-19" value="CRM" style="image;aspect=fixed;html=1;points=[];align=center;fontSize=13;image=img/lib/azure2/general/Folder_Blank.svg;fontStyle=1" parent="1" vertex="1">
          <mxGeometry x="131" y="316" width="59.14" height="48" as="geometry" />
        </mxCell>
        <mxCell id="L7s4A5tMN4BJx0zEjRQ6-24" style="edgeStyle=orthogonalEdgeStyle;rounded=0;orthogonalLoop=1;jettySize=auto;html=1;" parent="1" source="L7s4A5tMN4BJx0zEjRQ6-20" target="L7s4A5tMN4BJx0zEjRQ6-14" edge="1">
          <mxGeometry relative="1" as="geometry" />
        </mxCell>
        <mxCell id="L7s4A5tMN4BJx0zEjRQ6-25" style="edgeStyle=orthogonalEdgeStyle;rounded=0;orthogonalLoop=1;jettySize=auto;html=1;" parent="1" source="L7s4A5tMN4BJx0zEjRQ6-20" target="L7s4A5tMN4BJx0zEjRQ6-15" edge="1">
          <mxGeometry relative="1" as="geometry" />
        </mxCell>
        <mxCell id="L7s4A5tMN4BJx0zEjRQ6-26" style="edgeStyle=orthogonalEdgeStyle;rounded=0;orthogonalLoop=1;jettySize=auto;html=1;entryX=0;entryY=0.75;entryDx=0;entryDy=0;" parent="1" source="L7s4A5tMN4BJx0zEjRQ6-20" target="L7s4A5tMN4BJx0zEjRQ6-16" edge="1">
          <mxGeometry relative="1" as="geometry" />
        </mxCell>
        <mxCell id="L7s4A5tMN4BJx0zEjRQ6-20" value="ERP" style="image;aspect=fixed;html=1;points=[];align=center;fontSize=13;image=img/lib/azure2/general/Folder_Blank.svg;fontStyle=1" parent="1" vertex="1">
          <mxGeometry x="129.76" y="500" width="61.61" height="50" as="geometry" />
        </mxCell>
        <mxCell id="TnA-iGYwiq861Xrr6E-t-1" value="&lt;b&gt;&lt;font style=&quot;font-size: 16px;&quot;&gt;Silver Layer&lt;/font&gt;&lt;/b&gt;" style="rounded=1;whiteSpace=wrap;html=1;fillColor=#f5f5f5;strokeColor=#666666;fontColor=#333333;" vertex="1" parent="1">
          <mxGeometry x="550" y="210" width="157.5" height="30" as="geometry" />
        </mxCell>
        <mxCell id="TnA-iGYwiq861Xrr6E-t-2" value="" style="rounded=1;whiteSpace=wrap;html=1;fillColor=none;strokeColor=#666666;fontColor=#333333;" vertex="1" parent="1">
          <mxGeometry x="550" y="260" width="170" height="360" as="geometry" />
        </mxCell>
        <mxCell id="TnA-iGYwiq861Xrr6E-t-3" value="&lt;font style=&quot;font-size: 13px;&quot;&gt;crm_sales_details&lt;/font&gt;" style="rounded=1;whiteSpace=wrap;html=1;fillColor=#f5f5f5;strokeColor=#666666;fontColor=#333333;" vertex="1" parent="1">
          <mxGeometry x="565.5" y="280" width="142" height="30" as="geometry" />
        </mxCell>
        <mxCell id="TnA-iGYwiq861Xrr6E-t-4" value="&lt;font style=&quot;font-size: 13px;&quot;&gt;crm_cust_info&lt;/font&gt;" style="rounded=1;whiteSpace=wrap;html=1;fillColor=#f5f5f5;strokeColor=#666666;fontColor=#333333;" vertex="1" parent="1">
          <mxGeometry x="565.5" y="325" width="142" height="30" as="geometry" />
        </mxCell>
        <mxCell id="TnA-iGYwiq861Xrr6E-t-5" value="&lt;font style=&quot;font-size: 13px;&quot;&gt;crm_prd_info&lt;/font&gt;" style="rounded=1;whiteSpace=wrap;html=1;fillColor=#f5f5f5;strokeColor=#666666;fontColor=#333333;" vertex="1" parent="1">
          <mxGeometry x="565.5" y="370" width="142" height="30" as="geometry" />
        </mxCell>
        <mxCell id="TnA-iGYwiq861Xrr6E-t-6" value="&lt;font style=&quot;font-size: 13px;&quot;&gt;erp_cust_as12&lt;/font&gt;" style="rounded=1;whiteSpace=wrap;html=1;fillColor=#f5f5f5;strokeColor=#666666;fontColor=#333333;" vertex="1" parent="1">
          <mxGeometry x="565.5" y="470" width="142" height="30" as="geometry" />
        </mxCell>
        <mxCell id="TnA-iGYwiq861Xrr6E-t-7" value="&lt;font style=&quot;font-size: 13px;&quot;&gt;erp_loc_a101&lt;/font&gt;" style="rounded=1;whiteSpace=wrap;html=1;fillColor=#f5f5f5;strokeColor=#666666;fontColor=#333333;" vertex="1" parent="1">
          <mxGeometry x="564" y="510" width="142" height="30" as="geometry" />
        </mxCell>
        <mxCell id="TnA-iGYwiq861Xrr6E-t-8" value="&lt;font style=&quot;font-size: 13px;&quot;&gt;erp_px_cat_g1v2&lt;/font&gt;" style="rounded=1;whiteSpace=wrap;html=1;fillColor=#f5f5f5;strokeColor=#666666;fontColor=#333333;" vertex="1" parent="1">
          <mxGeometry x="564" y="550" width="142" height="30" as="geometry" />
        </mxCell>
        <mxCell id="TnA-iGYwiq861Xrr6E-t-16" value="" style="endArrow=classic;html=1;rounded=0;exitX=1;exitY=0.5;exitDx=0;exitDy=0;entryX=0;entryY=0.5;entryDx=0;entryDy=0;" edge="1" parent="1" source="L7s4A5tMN4BJx0zEjRQ6-11" target="TnA-iGYwiq861Xrr6E-t-3">
          <mxGeometry width="50" height="50" relative="1" as="geometry">
            <mxPoint x="490" y="290" as="sourcePoint" />
            <mxPoint x="540" y="240" as="targetPoint" />
          </mxGeometry>
        </mxCell>
        <mxCell id="TnA-iGYwiq861Xrr6E-t-17" value="" style="endArrow=classic;html=1;rounded=0;exitX=1;exitY=0.5;exitDx=0;exitDy=0;" edge="1" parent="1" source="L7s4A5tMN4BJx0zEjRQ6-12" target="TnA-iGYwiq861Xrr6E-t-4">
          <mxGeometry width="50" height="50" relative="1" as="geometry">
            <mxPoint x="470" y="339.5" as="sourcePoint" />
            <mxPoint x="570" y="340" as="targetPoint" />
          </mxGeometry>
        </mxCell>
        <mxCell id="TnA-iGYwiq861Xrr6E-t-18" value="" style="endArrow=classic;html=1;rounded=0;exitX=1;exitY=0.5;exitDx=0;exitDy=0;" edge="1" parent="1" source="L7s4A5tMN4BJx0zEjRQ6-13">
          <mxGeometry width="50" height="50" relative="1" as="geometry">
            <mxPoint x="570" y="390" as="sourcePoint" />
            <mxPoint x="570" y="385" as="targetPoint" />
          </mxGeometry>
        </mxCell>
        <mxCell id="TnA-iGYwiq861Xrr6E-t-19" value="" style="endArrow=classic;html=1;rounded=0;exitX=1;exitY=0.5;exitDx=0;exitDy=0;" edge="1" parent="1" source="L7s4A5tMN4BJx0zEjRQ6-14" target="TnA-iGYwiq861Xrr6E-t-6">
          <mxGeometry width="50" height="50" relative="1" as="geometry">
            <mxPoint x="470" y="430" as="sourcePoint" />
            <mxPoint x="578" y="430" as="targetPoint" />
          </mxGeometry>
        </mxCell>
        <mxCell id="TnA-iGYwiq861Xrr6E-t-20" value="" style="endArrow=classic;html=1;rounded=0;exitX=1;exitY=0.5;exitDx=0;exitDy=0;entryX=0;entryY=0.5;entryDx=0;entryDy=0;" edge="1" parent="1" source="L7s4A5tMN4BJx0zEjRQ6-15" target="TnA-iGYwiq861Xrr6E-t-7">
          <mxGeometry width="50" height="50" relative="1" as="geometry">
            <mxPoint x="480" y="560" as="sourcePoint" />
            <mxPoint x="588" y="560" as="targetPoint" />
          </mxGeometry>
        </mxCell>
        <mxCell id="TnA-iGYwiq861Xrr6E-t-21" value="" style="endArrow=classic;html=1;rounded=0;exitX=1;exitY=0.5;exitDx=0;exitDy=0;entryX=0;entryY=0.5;entryDx=0;entryDy=0;" edge="1" parent="1" source="L7s4A5tMN4BJx0zEjRQ6-16" target="TnA-iGYwiq861Xrr6E-t-8">
          <mxGeometry width="50" height="50" relative="1" as="geometry">
            <mxPoint x="480" y="580" as="sourcePoint" />
            <mxPoint x="588" y="580" as="targetPoint" />
          </mxGeometry>
        </mxCell>
        <mxCell id="TnA-iGYwiq861Xrr6E-t-22" value="" style="rounded=1;whiteSpace=wrap;html=1;fillColor=none;strokeColor=#d6b656;" vertex="1" parent="1">
          <mxGeometry x="810" y="260" width="170" height="360" as="geometry" />
        </mxCell>
        <mxCell id="TnA-iGYwiq861Xrr6E-t-23" value="fact_sales" style="rounded=1;whiteSpace=wrap;html=1;fillColor=#fff2cc;strokeColor=#d6b656;" vertex="1" parent="1">
          <mxGeometry x="824" y="325" width="142" height="30" as="geometry" />
        </mxCell>
        <mxCell id="TnA-iGYwiq861Xrr6E-t-24" value="dim_customers" style="rounded=1;whiteSpace=wrap;html=1;fillColor=#fff2cc;strokeColor=#d6b656;" vertex="1" parent="1">
          <mxGeometry x="824" y="435" width="142" height="30" as="geometry" />
        </mxCell>
        <mxCell id="TnA-iGYwiq861Xrr6E-t-25" value="dim_products" style="rounded=1;whiteSpace=wrap;html=1;fillColor=#fff2cc;strokeColor=#d6b656;" vertex="1" parent="1">
          <mxGeometry x="824" y="510" width="142" height="30" as="geometry" />
        </mxCell>
        <mxCell id="TnA-iGYwiq861Xrr6E-t-29" value="&lt;b&gt;&lt;font style=&quot;font-size: 16px;&quot;&gt;Gold Layer&lt;/font&gt;&lt;/b&gt;" style="rounded=1;whiteSpace=wrap;html=1;fillColor=#fff2cc;strokeColor=#d6b656;" vertex="1" parent="1">
          <mxGeometry x="816.25" y="210" width="157.5" height="30" as="geometry" />
        </mxCell>
        <mxCell id="TnA-iGYwiq861Xrr6E-t-30" value="" style="endArrow=classic;html=1;rounded=0;exitX=1;exitY=0.5;exitDx=0;exitDy=0;entryX=0;entryY=0.5;entryDx=0;entryDy=0;" edge="1" parent="1" source="TnA-iGYwiq861Xrr6E-t-3" target="TnA-iGYwiq861Xrr6E-t-23">
          <mxGeometry width="50" height="50" relative="1" as="geometry">
            <mxPoint x="760" y="590" as="sourcePoint" />
            <mxPoint x="810" y="540" as="targetPoint" />
          </mxGeometry>
        </mxCell>
        <mxCell id="TnA-iGYwiq861Xrr6E-t-31" value="" style="endArrow=classic;html=1;rounded=0;exitX=1;exitY=0.5;exitDx=0;exitDy=0;entryX=0;entryY=0.5;entryDx=0;entryDy=0;jumpStyle=gap;" edge="1" parent="1" source="TnA-iGYwiq861Xrr6E-t-4" target="TnA-iGYwiq861Xrr6E-t-24">
          <mxGeometry width="50" height="50" relative="1" as="geometry">
            <mxPoint x="760" y="350" as="sourcePoint" />
            <mxPoint x="876" y="395" as="targetPoint" />
          </mxGeometry>
        </mxCell>
        <mxCell id="TnA-iGYwiq861Xrr6E-t-32" value="" style="endArrow=classic;html=1;rounded=0;exitX=1;exitY=0.5;exitDx=0;exitDy=0;entryX=0;entryY=0.5;entryDx=0;entryDy=0;jumpStyle=gap;" edge="1" parent="1" source="TnA-iGYwiq861Xrr6E-t-6" target="TnA-iGYwiq861Xrr6E-t-24">
          <mxGeometry width="50" height="50" relative="1" as="geometry">
            <mxPoint x="760" y="430" as="sourcePoint" />
            <mxPoint x="876" y="540" as="targetPoint" />
          </mxGeometry>
        </mxCell>
        <mxCell id="TnA-iGYwiq861Xrr6E-t-33" value="" style="endArrow=classic;html=1;rounded=0;exitX=1;exitY=0.5;exitDx=0;exitDy=0;entryX=0;entryY=0.5;entryDx=0;entryDy=0;jumpStyle=gap;" edge="1" parent="1" source="TnA-iGYwiq861Xrr6E-t-7" target="TnA-iGYwiq861Xrr6E-t-24">
          <mxGeometry width="50" height="50" relative="1" as="geometry">
            <mxPoint x="780" y="555" as="sourcePoint" />
            <mxPoint x="896" y="520" as="targetPoint" />
          </mxGeometry>
        </mxCell>
        <mxCell id="TnA-iGYwiq861Xrr6E-t-34" value="" style="endArrow=classic;html=1;rounded=0;exitX=1;exitY=0.5;exitDx=0;exitDy=0;entryX=0;entryY=0.5;entryDx=0;entryDy=0;jumpStyle=gap;" edge="1" parent="1" source="TnA-iGYwiq861Xrr6E-t-5" target="TnA-iGYwiq861Xrr6E-t-25">
          <mxGeometry width="50" height="50" relative="1" as="geometry">
            <mxPoint x="750" y="515" as="sourcePoint" />
            <mxPoint x="866" y="480" as="targetPoint" />
          </mxGeometry>
        </mxCell>
        <mxCell id="TnA-iGYwiq861Xrr6E-t-35" value="" style="endArrow=classic;html=1;rounded=0;exitX=1;exitY=0.5;exitDx=0;exitDy=0;entryX=0;entryY=0.5;entryDx=0;entryDy=0;jumpStyle=gap;" edge="1" parent="1" source="TnA-iGYwiq861Xrr6E-t-8" target="TnA-iGYwiq861Xrr6E-t-25">
          <mxGeometry width="50" height="50" relative="1" as="geometry">
            <mxPoint x="730" y="560" as="sourcePoint" />
            <mxPoint x="846" y="700" as="targetPoint" />
          </mxGeometry>
        </mxCell>
      </root>
    </mxGraphModel>
  </diagram>
</mxfile>
